# xmcd
# 
# Track frame offsets:
#     150
#     22057
#     35292
#     49862
#     69845
#     86695
#     102632
#     115687
#     128917
#     150120
#     166590
# 
# Disc length: 2624
# 
# Revision: 7
# Processed by: cddbd v1.5.2PL0 Copyright (c) Steve Scherf et al.
# Submitted via: fre:ac v1.0.31
# 
DISCID=7e0a3e0b
DTITLE=Poco - 20th Century Masters - The millenium Collection The Best of Poco
DYEAR=2000
DGENRE=Rock/Pop
TTITLE0=Heart Of The Night
TTITLE1=Crazy Love
TTITLE2=Under The Gun
TTITLE3=Midnight Rain
TTITLE4=Little Darlin'
TTITLE5=Barbados
TTITLE6=Keep On Tryin'
TTITLE7=Makin' Love
TTITLE8=Indian Summer
TTITLE9=Widowmaker
TTITLE10=Rose Of Cimarron
EXTD=YEAR: 2000  ID3G:   2
EXTT0=
EXTT1=
EXTT2=
EXTT3=
EXTT4=
EXTT5=
EXTT6=
EXTT7=
EXTT8=
EXTT9=
EXTT10=
PLAYORDER=
